<?xml version="1.0" encoding="UTF-8" standalone="no"?>
<!-- Generator: Adobe Illustrator 12.0.0, SVG Export Plug-In . SVG Version: 6.00 Build 51448)  -->

<svg
   xmlns:dc="http://purl.org/dc/elements/1.1/"
   xmlns:cc="http://creativecommons.org/ns#"
   xmlns:rdf="http://www.w3.org/1999/02/22-rdf-syntax-ns#"
   xmlns:svg="http://www.w3.org/2000/svg"
   xmlns="http://www.w3.org/2000/svg"
   xmlns:sodipodi="http://sodipodi.sourceforge.net/DTD/sodipodi-0.dtd"
   xmlns:inkscape="http://www.inkscape.org/namespaces/inkscape"
   version="1.1"
   id="Layer_1"
   width="773.33"
   height="412.625"
   viewBox="0 0 773.33 412.625"
   overflow="visible"
   enable-background="new 0 0 773.33 412.625"
   xml:space="preserve"
   inkscape:version="0.48.0 r9654"
   sodipodi:docname="Disambig_LCARS.svg.2011_02_14_20_21_15.0.svg"><title
   id="title3073">LCARS Test</title><metadata
   id="metadata3071"><rdf:RDF><cc:Work
       rdf:about=""><dc:format>image/svg+xml</dc:format><dc:type
         rdf:resource="http://purl.org/dc/dcmitype/StillImage" /><dc:title>LCARS Test</dc:title><cc:license
         rdf:resource="http://creativecommons.org/licenses/by-sa/3.0/" /><dc:date>2001-02-14</dc:date><dc:creator><cc:Agent><dc:title>David Wonderly</dc:title></cc:Agent></dc:creator></cc:Work><cc:License
       rdf:about="http://creativecommons.org/licenses/by-sa/3.0/"><cc:permits
         rdf:resource="http://creativecommons.org/ns#Reproduction" /><cc:permits
         rdf:resource="http://creativecommons.org/ns#Distribution" /><cc:requires
         rdf:resource="http://creativecommons.org/ns#Notice" /><cc:requires
         rdf:resource="http://creativecommons.org/ns#Attribution" /><cc:permits
         rdf:resource="http://creativecommons.org/ns#DerivativeWorks" /><cc:requires
         rdf:resource="http://creativecommons.org/ns#ShareAlike" /></cc:License></rdf:RDF></metadata><defs
   id="defs3069" /><sodipodi:namedview
   pagecolor="#ffffff"
   bordercolor="#666666"
   borderopacity="1"
   objecttolerance="10"
   gridtolerance="10"
   guidetolerance="10"
   inkscape:pageopacity="0"
   inkscape:pageshadow="2"
   inkscape:window-width="640"
   inkscape:window-height="480"
   id="namedview3067"
   showgrid="false"
   inkscape:zoom="0.61799455"
   inkscape:cx="386.66501"
   inkscape:cy="206.3125"
   inkscape:window-x="0"
   inkscape:window-y="0"
   inkscape:window-maximized="0"
   inkscape:current-layer="Layer_1" />
<path
   d="M773.33,399.122c0,7.457-6.448,13.502-14.402,13.502H14.402C6.448,412.625,0,406.579,0,399.122V13.503  C0,6.045,6.448,0,14.402,0h744.525c7.954,0,14.402,6.045,14.402,13.503V399.122z"
   id="path3049" />
<g
   id="g3051">
	<path
   fill="#FF9900"
   d="M370.191,156.784c0,21.952-17.796,39.748-39.748,39.748H70.957c-21.952,0-39.748-17.795-39.748-39.748l0,0   c0-21.952,17.796-39.748,39.748-39.748h259.486C352.395,117.036,370.191,134.832,370.191,156.784L370.191,156.784z"
   id="path3053" />
	<path
   fill="#9999FF"
   d="M734.672,339.774c0,21.952-17.796,39.748-39.748,39.748H435.438c-21.952,0-39.748-17.795-39.748-39.748l0,0   c0-21.952,17.796-39.748,39.748-39.748h259.486C716.876,300.026,734.672,317.822,734.672,339.774L734.672,339.774z"
   id="path3055" />
	<path
   fill="#FF9900"
   d="M734.672,65.289c0,21.952-17.796,39.748-39.748,39.748H435.438c-21.952,0-39.748-17.795-39.748-39.748l0,0   c0-21.952,17.796-39.748,39.748-39.748h259.486C716.876,25.541,734.672,43.337,734.672,65.289L734.672,65.289z"
   id="path3057" />
	<path
   fill="#FF9900"
   d="M734.672,248.279c0,21.952-17.796,39.748-39.748,39.748H435.438c-21.952,0-39.748-17.795-39.748-39.748l0,0   c0-21.952,17.796-39.748,39.748-39.748h259.486C716.876,208.531,734.672,226.327,734.672,248.279L734.672,248.279z"
   id="path3059" />
	<path
   fill="none"
   stroke="#FF9900"
   stroke-width="9"
   d="M395.69,248.279h-74.246c-10.77,0-19.5-8.73-19.5-19.5v-32.248"
   id="path3061" />
	<path
   fill="none"
   stroke="#FF9900"
   stroke-width="9"
   d="M395.69,65.289h-74.246c-10.77,0-19.5,8.73-19.5,19.5v32.248"
   id="path3063" />
	<path
   fill="none"
   stroke="#FF9900"
   stroke-width="9"
   d="M395.69,339.774H291.444c-10.77,0-19.5-8.73-19.5-19.5V196.532"
   id="path3065" />
</g>
</svg>